<svg xmlns="http://www.w3.org/2000/svg" viewBox="0 0 24 24" aria-hidden="true" focusable="false"><path fill="currentColor" d="M12 .5C5.65.5.5 5.65.5 12a11.5 11.5 0 0 0 7.86 10.92c.57.1.78-.25.78-.55v-1.93c-3.2.7-3.87-1.54-3.87-1.54-.53-1.33-1.29-1.69-1.29-1.69-1.05-.72.08-.7.08-.7 1.16.08 1.77 1.2 1.77 1.2 1.03 1.77 2.71 1.26 3.37.96.1-.75.4-1.26.73-1.55-2.55-.29-5.23-1.28-5.23-5.68 0-1.26.45-2.28 1.18-3.08-.12-.29-.51-1.46.11-3.04 0 0 .97-.31 3.18 1.18a11 11 0 0 1 5.79 0c2.2-1.49 3.17-1.18 3.17-1.18.63 1.58.23 2.75.12 3.04.74.8 1.18 1.82 1.18 3.08 0 4.41-2.69 5.39-5.25 5.67.41.35.78 1.05.78 2.12v3.15c0 .3.21.66.79.55A11.5 11.5 0 0 0 23.5 12C23.5 5.65 18.35.5 12 .5"/></svg>
